<svg xmlns="http://www.w3.org/2000/svg" version="1.1" xmlns:xlink="http://www.w3.org/1999/xlink" xmlns:svgjs="http://svgjs.com/svgjs" width="1440" height="560" preserveAspectRatio="none" viewBox="0 0 1440 560"><g mask="url(&quot;#SvgjsMask1000&quot;)" fill="none"><rect width="1440" height="560" x="0" y="0" fill="#0e2a47"></rect><path d="M16.15 516.75L59.64 516.75L59.64 527.64L16.15 527.64z" stroke="#d3b714"></path><path d="M503.12 164.51 a30.1 30.1 0 1 0 60.2 0 a30.1 30.1 0 1 0 -60.2 0z" fill="#e73635"></path><path d="M739.15 338.1L788.97 338.1L788.97 352.84L739.15 352.84z" stroke="#037b0b"></path><path d="M291.78 62.02 a16.81 16.81 0 1 0 33.62 0 a16.81 16.81 0 1 0 -33.62 0z" fill="#d3b714"></path><path d="M1111.37 2.68L1158.14 2.68L1158.14 49.45L1111.37 49.45z" fill="#d3b714"></path><path d="M309.2 113.88L360.51 113.88L360.51 165.19L309.2 165.19z" stroke="#e73635"></path><path d="M639.54 273.85 a22.59 22.59 0 1 0 45.18 0 a22.59 22.59 0 1 0 -45.18 0z" fill="#037b0b"></path><path d="M284.85 377.15a53.98 53.98 0 1 0-98.82-43.49z" fill="#d3b714"></path><path d="M1209.13 542.67L1219.77 542.67L1219.77 593.02L1209.13 593.02z" fill="#e73635"></path><path d="M1074.44 316.89L1078.07 316.89L1078.07 354.68L1074.44 354.68z" fill="#d3b714"></path><path d="M554.03 495.76L580.39 495.76L580.39 529.98L554.03 529.98z" fill="#e73635"></path><path d="M94.78 304.67L149.97 304.67L149.97 359.86L94.78 359.86z" fill="#d3b714"></path><path d="M418.84 366.34L436.65 366.34L436.65 382.54L418.84 382.54z" stroke="#e73635"></path><path d="M140.37 557.66 a8.48 8.48 0 1 0 16.96 0 a8.48 8.48 0 1 0 -16.96 0z" fill="#e73635"></path><path d="M1099.2 39.4a38.46 38.46 0 1 0 13.56-75.72z" fill="#d3b714"></path><path d="M994.94 244.47L999.02 244.47L999.02 248.55L994.94 248.55z" stroke="#d3b714"></path><path d="M677.02 31.21L726.99 31.21L726.99 81.18L677.02 81.18z" fill="#e73635"></path><path d="M1319.96 367.5a26.21 26.21 0 1 0-44.96-26.95z" stroke="#d3b714"></path><path d="M248.63 39.33L300.54 39.33L300.54 55.71L248.63 55.71z" fill="#d3b714"></path><path d="M1178.95 363.57L1189.95 363.57L1189.95 374.57L1178.95 374.57z" stroke="#e73635"></path><path d="M321.66 211.83L337.67 211.83L337.67 226.1L321.66 226.1z" stroke="#e73635"></path><path d="M1238.12 442.89 a54.8 54.8 0 1 0 109.6 0 a54.8 54.8 0 1 0 -109.6 0z" fill="#037b0b"></path><path d="M1436.97 215.2L1440.4 215.2L1440.4 260.38L1436.97 260.38z" fill="#e73635"></path><path d="M1089.86 191.09 a44.48 44.48 0 1 0 88.96 0 a44.48 44.48 0 1 0 -88.96 0z" fill="#d3b714"></path><path d="M354.03 151.39L385.36 151.39L385.36 182.72L354.03 182.72z" fill="#037b0b"></path><path d="M166.13 195.47a52.33 52.33 0 1 0-0.74 104.66z" fill="#e73635"></path><path d="M496.91 61.06L533.78 61.06L533.78 115.41L496.91 115.41z" stroke="#037b0b"></path><path d="M1292.6 532.88a40.09 40.09 0 1 0-58.61-54.72z" stroke="#e73635"></path><path d="M866.45 183.49L919.07 183.49L919.07 233.5L866.45 233.5z" stroke="#037b0b"></path><path d="M741.18 554.6 a51.16 51.16 0 1 0 102.32 0 a51.16 51.16 0 1 0 -102.32 0z" fill="#e73635"></path><path d="M1046.39 381.53L1072.91 381.53L1072.91 389.9L1046.39 389.9z" fill="#d3b714"></path><path d="M1300.4 142.15L1311.06 142.15L1311.06 184.84L1300.4 184.84z" fill="#e73635"></path><path d="M1027.9 102.53L1059.88 102.53L1059.88 134.51L1027.9 134.51z" fill="#e73635"></path></g><defs><mask id="SvgjsMask1000"><rect width="1440" height="560" fill="#ffffff"></rect></mask></defs></svg>